<svg width="24" height="24" viewBox="0 0 24 24" fill="none" xmlns="http://www.w3.org/2000/svg">
<g clip-path="url(#clip0_6331_8043)">
<path fill-rule="evenodd" clip-rule="evenodd" d="M8.96295 20.8454L9.47632 19.6488C9.8412 18.7987 9.84164 17.848 9.47719 16.9974L8.78248 15.3758C8.22574 14.0757 6.87048 13.2413 5.38687 13.2852L5.22305 13.2901C3.84939 13.3307 2.59224 12.5642 2.06616 11.3647L1.59264 10.2857C1.46912 10.0038 1.46912 9.68674 1.59264 9.40488C1.71617 9.12302 1.95314 8.89868 2.25144 8.78197C2.54974 8.66525 2.88572 8.66483 3.18402 8.78155C3.48276 8.89827 3.71972 9.12219 3.84325 9.40406L4.10125 9.9922C4.31195 10.4723 4.80998 10.7836 5.36015 10.7794L5.39913 10.779C5.7167 10.7765 6.01237 10.6255 6.18846 10.3763C6.36499 10.1267 6.39916 9.81091 6.28002 9.53277L6.24015 9.43965C6.05136 8.99926 6.10699 8.49927 6.3882 8.10566C6.66898 7.71163 7.13899 7.47571 7.64184 7.47612L7.8359 7.47653C8.2021 7.47653 8.53018 7.69011 8.66115 8.01336L10.0226 11.373C10.2643 11.9698 10.8684 12.3655 11.5447 12.3704C12.221 12.375 12.8312 11.988 13.0826 11.3945L13.4449 10.539C14.006 9.21449 13.6096 7.69921 12.4598 6.77415L12.3529 6.68848C11.3064 5.84661 10.9205 4.48075 11.3835 3.2581L11.8001 2.15838C11.9087 1.87113 12.1339 1.63646 12.426 1.50608C12.7178 1.3757 13.0529 1.35997 13.3568 1.46303C13.6608 1.56609 13.9101 1.77883 14.048 2.05448C14.186 2.33055 14.2027 2.64677 14.094 2.93401L13.8882 3.47789C13.6897 4.00105 13.8474 4.58547 14.2863 4.95508L14.5338 5.16327C14.734 5.33214 15.0086 5.39795 15.2697 5.34C15.5308 5.28164 15.7459 5.10698 15.8453 4.87188L17.5746 0.789211C17.7056 0.479617 17.9623 0.231683 18.2873 0.100891C18.6119 -0.0303141 18.979 -0.0336163 19.3066 0.0913805C19.9834 0.349238 20.3119 1.07769 20.0386 1.71716L16.0507 11.063C15.985 11.2169 16.0367 11.3937 16.1769 11.4938C16.317 11.594 16.5107 11.5932 16.6499 11.4913L16.6609 11.4831L19.0039 9.64122C19.6842 9.10646 19.9531 8.23562 19.6838 7.43928L19.647 7.33126C19.5484 7.04029 19.5764 6.7249 19.7245 6.45338C19.8725 6.18228 20.1283 5.9774 20.4358 5.88468C20.7433 5.79197 21.0784 5.81764 21.3654 5.95754C21.6527 6.09744 21.8691 6.33915 21.9676 6.63012L22.343 7.73894C22.7618 8.97774 22.3251 10.332 21.2462 11.1387L19.3425 12.5629C19.0377 12.7906 18.9023 13.1655 18.996 13.5215C19.0898 13.8779 19.3955 14.1494 19.777 14.2156C20.1818 14.286 20.527 14.5372 20.7013 14.8894C20.8756 15.2412 20.859 15.6514 20.6566 15.99L20.3211 16.5516C20.1323 16.8679 19.7495 17.0326 19.3732 16.9597L17.0608 16.5119C15.2995 16.1708 13.5307 17.0632 12.8509 18.6364L11.6078 21.513C12.7743 21.5445 13.9083 21.2477 14.8948 20.6931C15.0025 20.6318 15.1326 20.6173 15.2526 20.6538C15.8361 20.8313 16.2448 21.3284 16.2807 21.9062C16.3162 22.4844 15.9719 23.0237 15.4143 23.2638C13.6179 24.0262 11.5609 24.2307 9.54334 23.7158C7.24893 23.1301 5.40571 21.7162 4.27121 19.8868C3.95889 19.3848 4.00707 18.7523 4.39253 18.2979C4.778 17.843 5.42059 17.6605 6.00712 17.8393C6.12626 17.8753 6.19591 17.8964 6.19591 17.8964C6.73249 19.1447 7.69354 20.2001 8.96295 20.8454Z" fill="#F05666"/>
</g>
<defs>
<clipPath id="clip0_6331_8043">
<rect width="24.0001" height="24" fill="white"/>
</clipPath>
</defs>
</svg>
